<?xml version="1.0" encoding="UTF-8"?>
<svg xmlns="http://www.w3.org/2000/svg" xmlns:xlink="http://www.w3.org/1999/xlink" width="24pt" height="24pt" viewBox="0 0 24 24" version="1.1">
<g id="surface1">
<path style=" stroke:none;fill-rule:nonzero;fill:rgb(0%,0%,0%);fill-opacity:1;" d="M 19.5 0 L 16.5 0 L 16.5 3 L 19.5 3 Z M 22.5 0 L 21 0 L 21 4.5 L 15 4.5 L 15 0 L 9 0 L 9 4.5 L 3 4.5 L 3 0 L 1.5 0 C 0.671875 0 0 0.671875 0 1.5 L 0 22.5 C 0 23.328125 0.671875 24 1.5 24 L 22.5 24 C 23.328125 24 24 23.328125 24 22.5 L 24 1.5 C 24 0.671875 23.328125 0 22.5 0 Z M 21 21 L 3 21 L 3 7.5 L 21 7.5 Z M 7.5 0 L 4.5 0 L 4.5 3 L 7.5 3 Z M 13.5 10.5 L 10.5 10.5 L 10.5 13.5 L 13.5 13.5 Z M 18 10.5 L 15 10.5 L 15 13.5 L 18 13.5 Z M 9 15 L 6 15 L 6 18 L 9 18 Z M 9 10.5 L 6 10.5 L 6 13.5 L 9 13.5 Z M 13.5 15 L 10.5 15 L 10.5 18 L 13.5 18 Z M 18 15 L 15 15 L 15 18 L 18 18 Z M 18 15 "/>
</g>
</svg>
